<mxfile host="app.diagrams.net" modified="2023-11-29T17:12:16.455Z" agent="Mozilla/5.0 (Windows NT 10.0; Win64; x64) AppleWebKit/537.36 (KHTML, like Gecko) Chrome/119.0.0.0 Safari/537.36" etag="1EHpLLLS81xjRjHCOZKb" version="22.1.5" type="github">
  <diagram id="R2lEEEUBdFMjLlhIrx00" name="Page-1">
    <mxGraphModel dx="1942" dy="516" grid="1" gridSize="10" guides="1" tooltips="1" connect="1" arrows="1" fold="1" page="1" pageScale="1" pageWidth="850" pageHeight="1100" math="0" shadow="0" extFonts="Permanent Marker^https://fonts.googleapis.com/css?family=Permanent+Marker">
      <root>
        <mxCell id="0" />
        <mxCell id="1" parent="0" />
        <mxCell id="pYwxa0pYal24DIkM7k4L-3" value="User" style="whiteSpace=wrap;html=1;align=center;" vertex="1" parent="1">
          <mxGeometry x="325" y="130" width="100" height="40" as="geometry" />
        </mxCell>
        <mxCell id="pYwxa0pYal24DIkM7k4L-6" value="Resource" style="whiteSpace=wrap;html=1;align=center;" vertex="1" parent="1">
          <mxGeometry x="110" y="240" width="100" height="40" as="geometry" />
        </mxCell>
        <mxCell id="pYwxa0pYal24DIkM7k4L-7" value="Book" style="whiteSpace=wrap;html=1;align=center;" vertex="1" parent="1">
          <mxGeometry x="490" y="430" width="100" height="40" as="geometry" />
        </mxCell>
        <mxCell id="pYwxa0pYal24DIkM7k4L-8" value="Category" style="whiteSpace=wrap;html=1;align=center;" vertex="1" parent="1">
          <mxGeometry x="140" y="420" width="100" height="40" as="geometry" />
        </mxCell>
        <mxCell id="pYwxa0pYal24DIkM7k4L-11" value="" style="edgeStyle=entityRelationEdgeStyle;fontSize=12;html=1;endArrow=ERzeroToMany;endFill=1;rounded=0;exitX=1;exitY=0.5;exitDx=0;exitDy=0;entryX=0;entryY=0.5;entryDx=0;entryDy=0;" edge="1" parent="1" source="pYwxa0pYal24DIkM7k4L-3" target="pYwxa0pYal24DIkM7k4L-7">
          <mxGeometry width="100" height="100" relative="1" as="geometry">
            <mxPoint x="370" y="370" as="sourcePoint" />
            <mxPoint x="470" y="270" as="targetPoint" />
          </mxGeometry>
        </mxCell>
        <mxCell id="pYwxa0pYal24DIkM7k4L-12" value="" style="edgeStyle=entityRelationEdgeStyle;fontSize=12;html=1;endArrow=ERzeroToMany;endFill=1;rounded=0;entryX=0;entryY=0.75;entryDx=0;entryDy=0;exitX=1;exitY=0.75;exitDx=0;exitDy=0;" edge="1" parent="1" source="pYwxa0pYal24DIkM7k4L-8" target="pYwxa0pYal24DIkM7k4L-7">
          <mxGeometry width="100" height="100" relative="1" as="geometry">
            <mxPoint x="220" y="360" as="sourcePoint" />
            <mxPoint x="320" y="260" as="targetPoint" />
          </mxGeometry>
        </mxCell>
        <mxCell id="pYwxa0pYal24DIkM7k4L-13" value="" style="edgeStyle=entityRelationEdgeStyle;fontSize=12;html=1;endArrow=ERzeroToMany;endFill=1;rounded=0;exitX=0;exitY=0.5;exitDx=0;exitDy=0;entryX=1;entryY=0.5;entryDx=0;entryDy=0;" edge="1" parent="1" source="pYwxa0pYal24DIkM7k4L-3" target="pYwxa0pYal24DIkM7k4L-6">
          <mxGeometry width="100" height="100" relative="1" as="geometry">
            <mxPoint x="200" y="210" as="sourcePoint" />
            <mxPoint x="180" y="170" as="targetPoint" />
            <Array as="points">
              <mxPoint x="180" y="160" />
            </Array>
          </mxGeometry>
        </mxCell>
        <mxCell id="pYwxa0pYal24DIkM7k4L-14" value="" style="edgeStyle=elbowEdgeStyle;fontSize=12;html=1;endArrow=ERzeroToMany;endFill=1;rounded=0;entryX=0;entryY=0.5;entryDx=0;entryDy=0;startArrow=ERone;startFill=0;exitX=0;exitY=0.25;exitDx=0;exitDy=0;" edge="1" parent="1" source="pYwxa0pYal24DIkM7k4L-8" target="pYwxa0pYal24DIkM7k4L-6">
          <mxGeometry width="100" height="100" relative="1" as="geometry">
            <mxPoint x="240" y="350" as="sourcePoint" />
            <mxPoint x="90" y="170" as="targetPoint" />
            <Array as="points">
              <mxPoint x="100" y="340" />
            </Array>
          </mxGeometry>
        </mxCell>
        <mxCell id="pYwxa0pYal24DIkM7k4L-15" value="" style="edgeStyle=elbowEdgeStyle;fontSize=12;html=1;endArrow=ERzeroToMany;endFill=1;rounded=0;entryX=1;entryY=0.5;entryDx=0;entryDy=0;exitX=0.69;exitY=1.05;exitDx=0;exitDy=0;exitPerimeter=0;" edge="1" parent="1" source="pYwxa0pYal24DIkM7k4L-3" target="pYwxa0pYal24DIkM7k4L-8">
          <mxGeometry width="100" height="100" relative="1" as="geometry">
            <mxPoint x="401" y="200" as="sourcePoint" />
            <mxPoint x="270" y="457" as="targetPoint" />
            <Array as="points">
              <mxPoint x="394" y="310" />
            </Array>
          </mxGeometry>
        </mxCell>
        <mxCell id="pYwxa0pYal24DIkM7k4L-16" value="user_id" style="ellipse;whiteSpace=wrap;html=1;align=center;" vertex="1" parent="1">
          <mxGeometry x="260" y="30" width="100" height="40" as="geometry" />
        </mxCell>
        <mxCell id="pYwxa0pYal24DIkM7k4L-17" value="user_name" style="ellipse;whiteSpace=wrap;html=1;align=center;" vertex="1" parent="1">
          <mxGeometry x="425" y="30" width="100" height="40" as="geometry" />
        </mxCell>
        <mxCell id="pYwxa0pYal24DIkM7k4L-18" value="" style="endArrow=none;html=1;rounded=0;entryX=0.36;entryY=-0.075;entryDx=0;entryDy=0;entryPerimeter=0;exitX=0.5;exitY=1;exitDx=0;exitDy=0;" edge="1" parent="1" source="pYwxa0pYal24DIkM7k4L-16" target="pYwxa0pYal24DIkM7k4L-3">
          <mxGeometry relative="1" as="geometry">
            <mxPoint x="340" y="90" as="sourcePoint" />
            <mxPoint x="485" y="69" as="targetPoint" />
          </mxGeometry>
        </mxCell>
        <mxCell id="pYwxa0pYal24DIkM7k4L-19" value="" style="endArrow=none;html=1;rounded=0;exitX=0.75;exitY=0;exitDx=0;exitDy=0;entryX=0.24;entryY=0.975;entryDx=0;entryDy=0;entryPerimeter=0;" edge="1" parent="1" source="pYwxa0pYal24DIkM7k4L-3" target="pYwxa0pYal24DIkM7k4L-17">
          <mxGeometry relative="1" as="geometry">
            <mxPoint x="395" y="120" as="sourcePoint" />
            <mxPoint x="555" y="120" as="targetPoint" />
          </mxGeometry>
        </mxCell>
        <mxCell id="pYwxa0pYal24DIkM7k4L-20" value="" style="endArrow=none;html=1;rounded=0;exitX=1;exitY=0;exitDx=0;exitDy=0;entryX=0.24;entryY=0.975;entryDx=0;entryDy=0;entryPerimeter=0;" edge="1" target="pYwxa0pYal24DIkM7k4L-21" parent="1" source="pYwxa0pYal24DIkM7k4L-3">
          <mxGeometry relative="1" as="geometry">
            <mxPoint x="490" y="160" as="sourcePoint" />
            <mxPoint x="645" y="150" as="targetPoint" />
          </mxGeometry>
        </mxCell>
        <mxCell id="pYwxa0pYal24DIkM7k4L-21" value="type" style="ellipse;whiteSpace=wrap;html=1;align=center;" vertex="1" parent="1">
          <mxGeometry x="515" y="60" width="100" height="40" as="geometry" />
        </mxCell>
        <mxCell id="pYwxa0pYal24DIkM7k4L-22" value="last_login" style="ellipse;whiteSpace=wrap;html=1;align=center;" vertex="1" parent="1">
          <mxGeometry x="580" y="111.5" width="100" height="40" as="geometry" />
        </mxCell>
        <mxCell id="pYwxa0pYal24DIkM7k4L-23" value="" style="endArrow=none;html=1;rounded=0;entryX=1;entryY=0.25;entryDx=0;entryDy=0;exitX=0.5;exitY=1;exitDx=0;exitDy=0;" edge="1" source="pYwxa0pYal24DIkM7k4L-22" parent="1" target="pYwxa0pYal24DIkM7k4L-3">
          <mxGeometry relative="1" as="geometry">
            <mxPoint x="660" y="171.5" as="sourcePoint" />
            <mxPoint x="681" y="208.5" as="targetPoint" />
          </mxGeometry>
        </mxCell>
        <mxCell id="pYwxa0pYal24DIkM7k4L-24" value="resource_id" style="ellipse;whiteSpace=wrap;html=1;align=center;" vertex="1" parent="1">
          <mxGeometry x="10" y="100" width="100" height="40" as="geometry" />
        </mxCell>
        <mxCell id="pYwxa0pYal24DIkM7k4L-25" value="" style="endArrow=none;html=1;rounded=0;entryX=0.16;entryY=0.025;entryDx=0;entryDy=0;entryPerimeter=0;exitX=0.5;exitY=1;exitDx=0;exitDy=0;" edge="1" source="pYwxa0pYal24DIkM7k4L-24" parent="1" target="pYwxa0pYal24DIkM7k4L-6">
          <mxGeometry relative="1" as="geometry">
            <mxPoint x="69" y="103" as="sourcePoint" />
            <mxPoint x="90" y="140" as="targetPoint" />
          </mxGeometry>
        </mxCell>
        <mxCell id="pYwxa0pYal24DIkM7k4L-26" value="resource_name" style="ellipse;whiteSpace=wrap;html=1;align=center;" vertex="1" parent="1">
          <mxGeometry x="100" y="130" width="100" height="40" as="geometry" />
        </mxCell>
        <mxCell id="pYwxa0pYal24DIkM7k4L-27" value="" style="endArrow=none;html=1;rounded=0;entryX=0.68;entryY=0.05;entryDx=0;entryDy=0;entryPerimeter=0;exitX=0.5;exitY=1;exitDx=0;exitDy=0;" edge="1" source="pYwxa0pYal24DIkM7k4L-26" parent="1" target="pYwxa0pYal24DIkM7k4L-6">
          <mxGeometry relative="1" as="geometry">
            <mxPoint x="120" y="103" as="sourcePoint" />
            <mxPoint x="141" y="140" as="targetPoint" />
          </mxGeometry>
        </mxCell>
        <mxCell id="pYwxa0pYal24DIkM7k4L-28" value="comments" style="ellipse;whiteSpace=wrap;html=1;align=center;" vertex="1" parent="1">
          <mxGeometry x="-50" y="151.5" width="100" height="40" as="geometry" />
        </mxCell>
        <mxCell id="pYwxa0pYal24DIkM7k4L-29" value="" style="endArrow=none;html=1;rounded=0;entryX=0;entryY=0;entryDx=0;entryDy=0;exitX=0.5;exitY=1;exitDx=0;exitDy=0;" edge="1" source="pYwxa0pYal24DIkM7k4L-28" parent="1" target="pYwxa0pYal24DIkM7k4L-6">
          <mxGeometry relative="1" as="geometry">
            <mxPoint x="-10" y="143" as="sourcePoint" />
            <mxPoint x="47" y="281" as="targetPoint" />
          </mxGeometry>
        </mxCell>
        <mxCell id="pYwxa0pYal24DIkM7k4L-30" value="date_added" style="ellipse;whiteSpace=wrap;html=1;align=center;" vertex="1" parent="1">
          <mxGeometry x="170" y="60" width="100" height="40" as="geometry" />
        </mxCell>
        <mxCell id="pYwxa0pYal24DIkM7k4L-31" value="" style="endArrow=none;html=1;rounded=0;entryX=1;entryY=0;entryDx=0;entryDy=0;exitX=0.5;exitY=1;exitDx=0;exitDy=0;" edge="1" source="pYwxa0pYal24DIkM7k4L-30" parent="1" target="pYwxa0pYal24DIkM7k4L-6">
          <mxGeometry relative="1" as="geometry">
            <mxPoint x="190" y="33" as="sourcePoint" />
            <mxPoint x="248" y="172" as="targetPoint" />
          </mxGeometry>
        </mxCell>
      </root>
    </mxGraphModel>
  </diagram>
</mxfile>
